<?xml version="1.0" encoding="utf-8"?>
<svg xmlns="http://www.w3.org/2000/svg" viewBox="0 0 64 64" width="512" height="512">
  <linearGradient id="AVJs0EtxLEW4ZJAXu2ilDa" x1="20" x2="20" y1="9.75" y2="18.484" gradientUnits="userSpaceOnUse">
    <stop offset="0" stop-color="#6dc7ff" />
    <stop offset="1" stop-color="#e6abff" />
  </linearGradient>
  <path fill="url(#AVJs0EtxLEW4ZJAXu2ilDa)" d="M16,18v-6c0-1.105,0.895-2,2-2h6L16,18z" />
  <linearGradient id="AVJs0EtxLEW4ZJAXu2ilDb" x1="32" x2="32" y1="2.489" y2="59.778" gradientUnits="userSpaceOnUse">
    <stop offset="0" stop-color="#1a6dff" />
    <stop offset="1" stop-color="#c822ff" />
  </linearGradient>
  <path fill="url(#AVJs0EtxLEW4ZJAXu2ilDb)" d="M50.536,15.121l-7.657-7.657C41.935,6.52,40.679,6,39.344,6H17c-2.757,0-5,2.243-5,5v37v1v4 c0,2.757,2.243,5,5,5h30c2.757,0,5-2.243,5-5v-4v-1V18.657C52,17.322,51.48,16.066,50.536,15.121z M42,9.414L48.586,16H43 c-0.551,0-1-0.449-1-1V9.414z M50,53c0,1.654-1.346,3-3,3H17c-1.654,0-3-1.346-3-3v-0.026C14.838,53.609,15.87,54,17,54h30 c1.13,0,2.162-0.391,3-1.026V53z M50,48v1c0,1.654-1.346,3-3,3H17c-1.654,0-3-1.346-3-3v-1V11c0-1.654,1.346-3,3-3h22.344 C39.566,8,39.785,8.031,40,8.08V15c0,1.654,1.346,3,3,3h6.922C49.97,18.214,50,18.432,50,18.657V48z" />
  <linearGradient id="AVJs0EtxLEW4ZJAXu2ilDc" x1="20.5" x2="20.5" y1="2.489" y2="59.778" gradientUnits="userSpaceOnUse">
    <stop offset="0" stop-color="#1a6dff" />
    <stop offset="1" stop-color="#c822ff" />
  </linearGradient>
  <path fill="url(#AVJs0EtxLEW4ZJAXu2ilDc)" d="M23,31h-5c-0.553,0-1,0.447-1,1v5c0,0.553,0.447,1,1,1h5c0.553,0,1-0.447,1-1v-5 C24,31.447,23.553,31,23,31z M22,36h-3v-3h3V36z" />
  <linearGradient id="AVJs0EtxLEW4ZJAXu2ilDd" x1="38.022" x2="38.022" y1="2.489" y2="59.778" gradientUnits="userSpaceOnUse">
    <stop offset="0" stop-color="#1a6dff" />
    <stop offset="1" stop-color="#c822ff" />
  </linearGradient>
  <rect width="17.957" height="2" x="29.043" y="31" fill="url(#AVJs0EtxLEW4ZJAXu2ilDd)" />
  <linearGradient id="AVJs0EtxLEW4ZJAXu2ilDe" x1="35.499" x2="35.499" y1="2.489" y2="59.778" gradientUnits="userSpaceOnUse">
    <stop offset="0" stop-color="#1a6dff" />
    <stop offset="1" stop-color="#c822ff" />
  </linearGradient>
  <rect width="12.912" height="2" x="29.043" y="35" fill="url(#AVJs0EtxLEW4ZJAXu2ilDe)" />
  <linearGradient id="AVJs0EtxLEW4ZJAXu2ilDf" x1="20.5" x2="20.5" y1="2.489" y2="59.778" gradientUnits="userSpaceOnUse">
    <stop offset="0" stop-color="#1a6dff" />
    <stop offset="1" stop-color="#c822ff" />
  </linearGradient>
  <path fill="url(#AVJs0EtxLEW4ZJAXu2ilDf)" d="M23,41h-5c-0.553,0-1,0.447-1,1v5c0,0.553,0.447,1,1,1h5c0.553,0,1-0.447,1-1v-5 C24,41.447,23.553,41,23,41z M22,46h-3v-3h3V46z" />
  <linearGradient id="AVJs0EtxLEW4ZJAXu2ilDg" x1="38.022" x2="38.022" y1="2.489" y2="59.778" gradientUnits="userSpaceOnUse">
    <stop offset="0" stop-color="#1a6dff" />
    <stop offset="1" stop-color="#c822ff" />
  </linearGradient>
  <rect width="17.957" height="2" x="29.043" y="41" fill="url(#AVJs0EtxLEW4ZJAXu2ilDg)" />
  <linearGradient id="AVJs0EtxLEW4ZJAXu2ilDh" x1="35.499" x2="35.499" y1="2.489" y2="59.778" gradientUnits="userSpaceOnUse">
    <stop offset="0" stop-color="#1a6dff" />
    <stop offset="1" stop-color="#c822ff" />
  </linearGradient>
  <rect width="12.912" height="2" x="29.043" y="45" fill="url(#AVJs0EtxLEW4ZJAXu2ilDh)" />
  <linearGradient id="AVJs0EtxLEW4ZJAXu2ilDi" x1="38.022" x2="38.022" y1="2.489" y2="59.778" gradientUnits="userSpaceOnUse">
    <stop offset="0" stop-color="#1a6dff" />
    <stop offset="1" stop-color="#c822ff" />
  </linearGradient>
  <rect width="17.957" height="2" x="29.043" y="21" fill="url(#AVJs0EtxLEW4ZJAXu2ilDi)" />
  <linearGradient id="AVJs0EtxLEW4ZJAXu2ilDj" x1="35.499" x2="35.499" y1="2.489" y2="59.778" gradientUnits="userSpaceOnUse">
    <stop offset="0" stop-color="#1a6dff" />
    <stop offset="1" stop-color="#c822ff" />
  </linearGradient>
  <rect width="12.912" height="2" x="29.043" y="25" fill="url(#AVJs0EtxLEW4ZJAXu2ilDj)" />
  <linearGradient id="AVJs0EtxLEW4ZJAXu2ilDk" x1="22.042" x2="22.042" y1="2.489" y2="59.778" gradientUnits="userSpaceOnUse">
    <stop offset="0" stop-color="#1a6dff" />
    <stop offset="1" stop-color="#c822ff" />
  </linearGradient>
  <path fill="url(#AVJs0EtxLEW4ZJAXu2ilDk)" d="M21.472,24.98l-2.774-2.697l-1.395,1.434l2.775,2.698c0.382,0.371,0.896,0.578,1.426,0.578 c0.042,0,0.085-0.002,0.128-0.004c0.574-0.036,1.109-0.314,1.469-0.764l3.681-4.601l-1.563-1.25L21.472,24.98z" />
</svg>